<?xml version="1.0" encoding="UTF-8"?>
<svg version="1.1" xmlns="http://www.w3.org/2000/svg" width="50" height="50">
<path d="M0 0 C3.67559185 3.00048314 6.12889149 6.16051915 8.0625 10.5 C8.0625 11.49 8.0625 12.48 8.0625 13.5 C7.0725 13.5 6.0825 13.5 5.0625 13.5 C3.8515625 11.85546875 3.8515625 11.85546875 2.6875 9.6875 C0.53852042 6.10586737 -0.8633101 3.94860085 -4.9375 2.5 C-9.905201 1.84152956 -13.7297801 1.94087042 -18.3125 4.0625 C-21.470335 6.99477536 -23.01711984 9.65923967 -24.9375 13.5 C-25.9275 13.5 -26.9175 13.5 -27.9375 13.5 C-27.54765648 8.04219073 -25.78210059 5.34460059 -21.9375 1.5 C-15.98127172 -2.85821581 -6.64663788 -3.27959106 0 0 Z " fill="#000000" transform="translate(34.9375,2.5)"/>
<path d="M0 0 C1.98 0 3.96 0 6 0 C6 6.93 6 13.86 6 21 C4.02 21 2.04 21 0 21 C0 14.07 0 7.14 0 0 Z " fill="#000000" transform="translate(39,17)"/>
<path d="M0 0 C1.98 0 3.96 0 6 0 C6 6.93 6 13.86 6 21 C4.02 21 2.04 21 0 21 C0 14.07 0 7.14 0 0 Z " fill="#000000" transform="translate(5,17)"/>
<path d="M0 0 C3.63 0 7.26 0 11 0 C11 1.98 11 3.96 11 6 C7.37 6 3.74 6 0 6 C0 4.02 0 2.04 0 0 Z " fill="#000000" transform="translate(20,42)"/>
<path d="M0 0 C1.485 0.99 1.485 0.99 3 2 C3.3984375 4.53125 3.3984375 4.53125 3.375 7.5 C3.38273437 8.4796875 3.39046875 9.459375 3.3984375 10.46875 C3.26695313 11.3040625 3.13546875 12.139375 3 13 C2.01 13.66 1.02 14.32 0 15 C0 10.05 0 5.1 0 0 Z " fill="#000000" transform="translate(47,20)"/>
<path d="M0 0 C0.33 0 0.66 0 1 0 C1 4.95 1 9.9 1 15 C0.01 14.34 -0.98 13.68 -2 13 C-2.36328125 10.46875 -2.36328125 10.46875 -2.3125 7.5 C-2.30863281 6.5203125 -2.30476562 5.540625 -2.30078125 4.53125 C-2 2 -2 2 0 0 Z " fill="#000000" transform="translate(2,20)"/>
<path d="M0 0 C0.99 0 1.98 0 3 0 C2.61502006 2.23288365 2.10506663 3.83656302 0.875 5.75 C-1.99745901 7.66497267 -4.64483583 7.18991495 -8 7 C-8 6.34 -8 5.68 -8 5 C-6.865625 4.54625 -5.73125 4.0925 -4.5625 3.625 C-0.95278308 2.42904194 -0.95278308 2.42904194 0 0 Z " fill="#000000" transform="translate(40,39)"/>
</svg>
